<svg width="51" height="51" viewBox="0 0 51 51" fill="none" xmlns="http://www.w3.org/2000/svg">
<path d="M18.6393 4.65239C17.8293 2.62754 15.8683 1.2998 13.6875 1.2998H6.35231C3.56189 1.2998 1.2998 3.5614 1.2998 6.35189C1.2998 30.0711 20.5281 49.2998 44.2466 49.2998C47.037 49.2998 49.2986 47.0375 49.2986 44.247L49.2998 36.9104C49.2998 34.7296 47.9724 32.7688 45.9477 31.9588L38.9173 29.1477C37.0985 28.4201 35.0277 28.7476 33.5228 30.0017L31.7084 31.515C29.5894 33.2809 26.4715 33.1404 24.5211 31.1899L19.4119 26.076C17.4615 24.1255 17.3174 21.0101 19.0832 18.891L20.5962 17.0766C21.8502 15.5717 22.1806 13.5002 21.4531 11.6814L18.6393 4.65239Z" stroke="#624A43" stroke-width="2.6" stroke-linecap="round" stroke-linejoin="round"/>
</svg>
