<svg width="53" height="43" viewBox="0 0 53 43" fill="none" xmlns="http://www.w3.org/2000/svg">
<path d="M4.07758 4.15695L21.0432 17.3349L21.0489 17.3397C22.9327 18.7606 23.8752 19.4715 24.9075 19.7461C25.8199 19.9889 26.779 19.9889 27.6914 19.7461C28.7246 19.4713 29.6698 18.7583 31.557 17.3349C31.557 17.3349 42.4389 8.74535 48.522 4.15695M1.2998 32.1575V10.4432C1.2998 7.24292 1.2998 5.64158 1.90532 4.41922C2.43795 3.34401 3.28723 2.47047 4.33257 1.92262C5.52097 1.2998 7.07783 1.2998 10.1892 1.2998H42.4115C45.5229 1.2998 47.0764 1.2998 48.2648 1.92262C49.3101 2.47047 50.1622 3.34401 50.6949 4.41922C51.2998 5.64038 51.2998 7.23979 51.2998 10.4338V32.1672C51.2998 35.3612 51.2998 36.9583 50.6949 38.1795C50.1622 39.2547 49.3101 40.1297 48.2648 40.6776C47.0776 41.2998 45.5248 41.2998 42.4195 41.2998H10.1801C7.07479 41.2998 5.51981 41.2998 4.33257 40.6776C3.28723 40.1297 2.43795 39.2547 1.90532 38.1795C1.2998 36.9571 1.2998 35.3578 1.2998 32.1575Z" stroke="#624A43" stroke-width="2.6" stroke-linecap="round" stroke-linejoin="round"/>
</svg>
