<svg width="1760" height="458" viewBox="0 0 1760 458" fill="none" xmlns="http://www.w3.org/2000/svg">
<rect width="1760" height="458" rx="20" fill="#624A43"/>
<mask id="mask0_872_740" style="mask-type:alpha" maskUnits="userSpaceOnUse" x="0" y="0" width="1760" height="458">
<rect width="1760" height="458" rx="20" fill="#624A43"/>
</mask>
<g mask="url(#mask0_872_740)">
<path opacity="0.4" d="M807.976 -200.033C823.86 -202.264 836.576 -194.244 848.92 -187.413C883.982 -168.013 918.197 -147.085 952.729 -126.729C954.764 -125.529 956.684 -124.132 959.504 -122.064C960.28 -121.495 961.123 -121.018 962.024 -120.679C961.873 -120.738 961.897 -120.953 962.057 -120.977C967.977 -121.855 974.021 -122.535 980.27 -123.097C985.378 -123.557 986.652 -118.428 981.562 -117.796C986.159 -118.293 990.583 -119.694 994.89 -121.996C997.388 -123.33 1000.02 -124.44 1002.81 -124.899C1019.35 -127.618 1035.81 -130.326 1051.37 -132.885C1054.57 -133.41 1056.38 -137.015 1055.27 -140.057C1054.11 -143.219 1056.35 -146.393 1059.71 -146.532C1062.57 -146.65 1065.54 -146.555 1068.78 -145.979C1069.05 -145.93 1069.3 -145.79 1069.49 -145.592C1069.77 -145.296 1070.18 -145.153 1070.58 -145.198C1096.37 -148.017 1122.51 -150.033 1149.53 -151.564C1150.37 -151.612 1151.36 -150.963 1151.62 -150.159C1152 -148.985 1150.92 -148.205 1149.69 -148.094C1124.77 -145.842 1099.85 -143.545 1074.92 -141.489L1084.54 -142.292C1106.12 -144.119 1127.77 -146.097 1150.11 -148.018C1151.18 -148.11 1151.94 -149.504 1151.86 -150.584C1151.82 -151.212 1152.3 -151.91 1152.92 -151.998C1167.37 -154.03 1181.83 -155.528 1197.02 -156.851C1199.42 -157.061 1201.01 -154.249 1198.72 -153.487C1198.91 -153.549 1199.1 -153.629 1199.28 -153.722C1202.5 -155.338 1205.46 -157.372 1209.05 -157.537C1209.55 -157.56 1210.09 -157.582 1210.68 -157.604C1211.56 -157.716 1212.44 -157.898 1213.29 -158.149C1220.77 -160.348 1229.05 -162.907 1237.52 -164.286C1256.49 -167.374 1275.58 -169.768 1295.63 -171.835C1296.29 -171.904 1297.22 -171.352 1297.54 -170.766C1298.08 -169.79 1297.11 -169.109 1296 -168.959C1280.74 -166.876 1265.47 -164.799 1250.03 -162.726C1266.39 -164.891 1282.54 -167.056 1299.01 -169.227C1310.46 -170.113 1321.09 -170.516 1331.49 -172.002C1321.37 -170.556 1311.04 -170.138 1299.95 -169.301C1299.34 -169.255 1298.73 -169.328 1298.34 -169.793C1297.38 -170.933 1298.77 -172.567 1300.24 -172.819C1310.95 -174.663 1321.75 -176.057 1332.89 -177.339C1336.16 -177.715 1337.68 -173.224 1334.47 -172.49L1335.36 -172.722C1338.79 -173.73 1342.04 -175.921 1345.33 -177.774C1346.61 -178.492 1347.33 -180.153 1348.79 -180.09C1349.13 -180.076 1349.73 -179.974 1350.07 -179.977C1351.71 -179.988 1353.33 -180.014 1354.94 -180.047C1353.35 -180.016 1351.75 -179.995 1350.14 -179.987C1361.77 -181.627 1373.67 -182.535 1386.48 -183.571C1387.85 -183.682 1390.15 -182.005 1388.78 -181.895C1381.9 -181.366 1375.01 -180.877 1368.08 -180.523C1375.07 -180.878 1381.93 -181.368 1388.78 -181.895C1389.03 -181.915 1389.23 -182.622 1389.43 -183.278C1389.5 -183.507 1389.75 -183.834 1389.98 -183.768C1390.14 -183.722 1390.6 -183.806 1390.6 -183.974C1390.63 -185.299 1391.55 -187.173 1392.41 -187.151C1409.41 -186.694 1426.4 -185.964 1443.89 -184.47C1429.5 -183.732 1414.77 -183.583 1399.3 -183.602C1414.01 -183.566 1428.16 -183.599 1442.27 -183.64C1443.67 -183.644 1445.07 -183.504 1446.44 -183.211C1449.81 -182.488 1453.33 -181.658 1457.72 -180.199C1461.07 -179.158 1463.38 -178.866 1465.6 -178.644C1466.06 -178.598 1466.31 -178.7 1466.6 -178.341C1466.96 -177.906 1466.23 -177.134 1465.76 -176.829C1462.06 -174.426 1458.68 -172.515 1454.17 -170.044C1458.49 -172.398 1461.78 -174.194 1465.4 -176.174C1466.2 -176.615 1467.19 -176.894 1468.11 -176.898C1471.44 -176.912 1473.84 -173.561 1472.47 -170.52C1469.33 -163.555 1461.9 -164.456 1450.85 -168.223C1450.85 -168.223 1450.85 -168.223 1450.84 -168.223C1450.84 -168.222 1450.84 -168.221 1450.85 -168.22C1456.5 -166.294 1461.2 -165.117 1464.92 -165.347C1471.93 -165.78 1481.41 -170.366 1486.76 -165.828C1491.95 -161.426 1497.12 -156.995 1502.16 -152.421C1506.99 -148.033 1506.94 -143.853 1499.96 -141.166C1492.29 -138.212 1484.72 -134.957 1475.57 -132.089C1475.17 -131.966 1474.76 -131.894 1474.35 -131.876C1474.02 -131.861 1473.69 -131.812 1473.36 -131.729C1444.93 -124.454 1415.83 -116.973 1386.48 -110.651C1370.49 -107.205 1354.06 -105.771 1336.78 -103.545C1353.96 -107.301 1372.26 -110.67 1390.42 -114.655C1372.36 -110.692 1354.17 -107.339 1336.04 -103.721C1335.83 -103.68 1335.63 -103.622 1335.43 -103.559C1335.15 -103.468 1334.66 -103.331 1334.07 -103.221C1333.68 -103.148 1333.32 -102.902 1333.16 -102.535C1333.08 -102.348 1333.05 -102.144 1333.07 -101.939C1333.16 -100.827 1333.13 -99.6763 1332.98 -98.4673C1332.84 -97.3717 1331.79 -97.4662 1331.91 -98.5649C1331.27 -95.4509 1330.46 -92.325 1328.61 -89.7485C1327.43 -88.1266 1326.06 -86.4422 1324.25 -84.6221C1324.03 -84.3995 1323.82 -84.18 1323.62 -83.9633C1323.46 -83.7965 1323.35 -83.5946 1323.28 -83.3783C1322.96 -82.4472 1322.49 -81.48 1321.87 -80.4674C1321.42 -79.7401 1320.72 -80.1175 1321.14 -80.862C1319.64 -78.6493 1317.74 -76.6524 1315.33 -75.5051C1314.11 -74.9223 1312.87 -74.4375 1311.6 -74.3082C1303.79 -73.5133 1295.92 -73.2713 1286.34 -73.2336C1279.73 -74.0876 1274.72 -74.5526 1269.77 -75.0039C1269.39 -75.0386 1269 -75.0364 1268.63 -75.0981C1268.33 -75.1458 1267.96 -75.2442 1267.58 -75.4452C1267.33 -75.5788 1267.06 -75.6953 1266.78 -75.7235C1266.73 -75.7288 1266.67 -75.7338 1266.62 -75.7388C1266.48 -75.7517 1266.34 -75.7331 1266.21 -75.6921C1265.46 -75.4585 1264.55 -75.3517 1263.43 -75.3148C1262.96 -75.2993 1262.9 -75.7462 1263.37 -75.804C1261.37 -75.6719 1259.53 -74.7423 1257.88 -73.5963C1257.03 -73.0053 1256.08 -72.3992 1254.93 -71.764C1253.61 -71.0372 1252.17 -70.5553 1250.69 -70.2402C1235.07 -66.9017 1220.75 -65.9024 1206.06 -68.0583C1211.08 -67.3183 1212.01 -62.987 1207.1 -64.2878C1204.89 -64.8741 1202.63 -65.618 1200.32 -66.5372C1185.64 -72.3613 1166.92 -69.2214 1150.14 -68.1181C1134.95 -67.1197 1119.93 -63.5404 1104.86 -60.92C1104.44 -60.847 1104.03 -60.7494 1103.61 -60.6327C1101.63 -60.0772 1100.37 -62.0743 1102.23 -62.9473C1099.99 -61.9062 1098.01 -59.8432 1095.9 -58.2897C1095.72 -58.1564 1095.49 -58.1211 1095.28 -58.2125C1095.17 -58.2624 1094.89 -58.24 1094.81 -58.1437C1094.48 -57.7193 1093.89 -57.3072 1093.03 -56.8783C1092.51 -56.6151 1092.23 -57.0236 1092.74 -57.3209C1093.29 -57.6476 1093.99 -57.9774 1094.84 -58.2975C1094.85 -58.3021 1094.85 -58.3202 1094.83 -58.3217C1094.83 -58.322 1094.83 -58.3217 1094.83 -58.321C1093.36 -57.7518 1092.3 -57.1394 1091.31 -56.5178C1091.03 -56.3393 1090.07 -56.2621 1089.74 -56.2624C1075.43 -54.8598 1061.89 -53.4558 1048.41 -52.0525C1046.72 -51.8763 1045.01 -51.3941 1043.32 -51.5567C1043.07 -51.5595 1042.89 -51.3228 1042.86 -51.0825C1042.76 -50.3662 1042.1 -49.5917 1041.35 -49.5085C1032.41 -48.5088 1023.46 -47.5574 1014.31 -46.6505C1011.53 -46.3748 1010.76 -50.0485 1013.49 -50.6407C1007.75 -49.4032 1002.11 -47.3918 996.429 -45.679C994.862 -45.2065 993.237 -44.9581 991.601 -44.9163C987.482 -44.8109 983.154 -44.793 977.58 -45.295C976.477 -45.315 975.381 -45.3266 974.29 -45.3412C960.03 -44.7245 945.075 -44.6275 929.13 -44.6439C936.388 -44.9097 943.908 -45.1494 951.65 -45.3021C944.243 -45.1895 937.018 -45.0006 929.809 -44.8066C928.637 -44.7751 927.953 -44.6151 926.784 -44.5223C926.218 -44.4774 925.157 -44.5177 924.59 -44.4795C924.322 -44.4614 924.055 -44.4432 923.79 -44.4253C917.09 -43.6003 909.424 -42.8811 900.806 -42.2621C904.715 -42.7543 908.96 -43.2131 913.541 -43.6359C909.192 -43.2661 905.076 -42.8796 900.981 -42.4866C900.164 -42.4081 899.369 -42.1835 898.583 -41.9446C898.391 -41.8862 898.185 -41.829 897.97 -41.7782C897.892 -41.7597 897.816 -41.735 897.743 -41.7024C897.737 -41.6998 897.731 -41.6972 897.725 -41.6947C897.458 -41.5754 897.258 -41.3461 897.075 -41.1169C896.825 -40.8026 896.408 -40.4495 895.807 -40.1019C895.755 -40.0718 895.69 -40.0848 895.695 -40.1448C895.702 -40.2456 895.525 -40.4435 895.445 -40.3815C895.318 -40.2831 895.2 -40.1866 895.083 -40.0903C895.06 -40.0721 895.033 -40.0617 895.004 -40.0608C892.434 -39.9809 889.854 -39.9054 885.601 -40.5502C884.903 -40.5634 884.21 -40.5737 883.52 -40.5869C848.493 -36.8242 812.746 -33.6174 775.94 -30.5192C793.042 -32.96 810.743 -35.5728 828.634 -37.7979C811.189 -35.6387 793.785 -33.1305 776.355 -30.8245C775.363 -30.6934 774.939 -30.5564 773.951 -30.3977C773.237 -30.2831 771.941 -30.2793 771.223 -30.1861C771.004 -30.1576 770.784 -30.129 770.565 -30.1005C756.097 -26.9922 740.671 -23.7557 725.16 -20.9994C713.039 -18.8456 700.855 -17.0423 688.159 -15.234C685.89 -14.9108 684.839 -17.7576 687.044 -18.3828L687.694 -18.5464C685.122 -17.9829 682.694 -16.4568 680.24 -15.1088C678.914 -14.3803 677.45 -13.8649 675.938 -13.9169C675.833 -13.9205 675.724 -13.9255 675.611 -13.932C674.383 -14.0028 673.149 -14.0379 671.931 -13.8635C652.962 -9.62766 633.31 -6.21771 613.835 -1.9941C598.373 1.35985 583.04 5.30998 567.173 9.16195C564.881 9.71825 563.614 6.83453 565.815 5.98653C563.119 7.02114 560.606 8.7278 558.057 10.3056C556.515 11.2601 555.461 11.8367 553.654 11.9879C552.394 12.0932 550.465 12.2395 549.235 12.5329C548.681 12.6651 548.128 12.7974 547.577 12.9292C536.029 16.6191 523.673 20.2328 511.32 23.8551C506.431 25.289 501.551 26.7621 495.857 27.7405C495.508 27.8005 494.895 27.5579 494.703 27.2602C494.36 26.7283 494.889 26.4392 495.5 26.2763C504.972 23.7543 514.451 21.2331 524.076 18.7257C514.391 21.1717 504.835 23.6211 495.052 26.0376C494.727 26.1179 494.426 27.2104 494.408 27.545C494.401 27.6637 494.326 27.7102 494.214 27.7507C493.413 28.0403 492.613 28.3263 491.812 28.6087C489.676 29.3622 489.154 27.8658 491.303 27.1503C483.203 29.8439 475.825 32.6376 468.451 35.4363C466.665 36.3317 464.878 37.2272 461.817 37.7197C461.555 37.7668 461.301 37.8189 461.049 37.8691C460.951 37.8889 460.856 37.924 460.767 37.9722C459.309 38.766 457.613 39.3455 455.566 39.9047C455.194 40.0062 455.048 39.592 455.407 39.4516L456.401 39.0817C455.083 39.5126 453.873 39.9789 452.683 40.4515C452.375 40.5738 451.738 40.4756 451.411 40.4222C451.355 40.4132 451.173 40.4059 451.12 40.4239C444.578 42.6445 438.838 44.9373 433.099 47.2301C433.079 47.2389 432.284 47.5329 431.212 47.6162C431.057 47.6283 430.902 47.6511 430.752 47.6934C430.681 47.7136 430.61 47.7338 430.541 47.754C430.36 47.8066 430.198 47.9059 430.053 48.025C429.681 48.3293 429.163 48.6442 428.494 48.9546C427.97 49.1976 427.728 48.7957 428.242 48.5332C427.384 48.8749 426.715 49.2094 426.046 49.5441C424.321 50.4324 422.598 51.3208 419.306 52.1408C419.014 52.1981 418.732 52.2554 418.459 52.3128C418.311 52.3437 418.172 52.4031 418.044 52.4817C417.379 52.8887 416.515 53.279 415.447 53.646C414.829 53.8585 414.624 53.3643 415.236 53.1352C413.963 53.5217 412.924 53.9199 411.885 54.3181C411.857 54.3288 411.125 54.5955 410.083 54.6867C409.856 54.7065 409.632 54.7493 409.42 54.8312C409.339 54.8623 409.26 54.8933 409.182 54.9242C409.056 54.9745 408.944 55.0533 408.844 55.1463C408.441 55.5243 407.841 55.9332 407.046 56.384C406.681 56.5912 406.465 56.3011 406.809 56.0595C405.501 56.8143 404.177 57.5473 402.739 58.0091C398.287 59.4395 393.75 60.9627 388.612 63.1586C388.195 63.3371 387.524 63.8692 387.208 64.1958C386.1 65.3428 384.927 66.2344 383.333 66.1737C382.853 66.1555 382.306 66.1138 381.661 66.0388C381.432 65.9802 380.514 66.2155 380.29 66.2922C380.061 66.3708 379.808 66.4459 379.609 66.511C379.559 66.527 379.503 66.4857 379.494 66.4347C379.478 66.3353 379.298 66.224 379.235 66.3025C379.147 66.4122 379.072 66.5394 379.005 66.6823C378.991 66.7113 378.97 66.7365 378.944 66.7547C377.965 67.4264 376.964 68.0984 374.558 68.7888C374.318 68.8671 374.089 68.9468 373.871 69.0258C373.709 69.0845 373.566 69.1844 373.441 69.3021C373.03 69.6876 372.427 70.0908 371.631 70.5255C371.225 70.7471 370.981 70.4195 371.36 70.1555C370.89 70.4167 370.482 70.6771 370.099 70.9377C369.866 71.0957 369.154 71.0764 368.875 71.0396C368.836 71.0344 368.708 71.0316 368.67 71.0443C363.728 72.7043 359.568 74.4225 355.409 76.1407C352.831 77.6205 350.251 79.1027 346.447 80.2126C346.238 80.2741 346.037 80.3385 345.843 80.4045C345.632 80.4767 345.454 80.6197 345.312 80.7915C344.888 81.302 344.339 81.719 343.631 82.1281C343.197 82.3793 342.878 81.9656 343.269 81.6523C342.698 82.0274 342.202 82.4233 341.723 82.8247C341.546 82.9728 341.195 82.9108 341.001 83.0366C340.983 83.0484 340.935 83.0831 340.916 83.0931C340.704 83.2038 340.512 83.3113 340.336 83.4179C339.238 84.0846 338.278 85.0135 337.109 85.5471C322.53 92.202 307.557 98.1498 293.614 105.942C278.8 114.222 264.692 123.933 251.023 134.03C242.033 140.671 234.368 149.104 225.058 157.608C223.013 160.012 222.017 161.539 221.022 163.068C213.77 172.225 206.517 181.384 197.99 191.359C197.807 191.58 197.638 191.793 197.481 191.998C197.342 192.179 197.263 192.396 197.221 192.62C197.069 193.421 196.66 194.422 195.959 195.597C195.908 195.683 195.787 195.701 195.785 195.6C195.782 195.467 195.513 195.331 195.462 195.454C195.353 195.721 195.252 195.981 195.152 196.242C194.133 198.296 193.113 200.349 190.8 203.195C190.634 203.39 190.476 203.578 190.328 203.761C190.18 203.943 190.091 204.164 190.038 204.393C189.912 204.94 189.663 205.577 189.286 206.301C188.998 206.852 188.474 206.663 188.713 206.089C188.233 206.921 187.915 207.656 187.596 208.391C183.802 215.943 180.114 223.555 176.191 231.041C165.039 252.319 174.714 291.907 192.473 307.961C216.139 329.354 244.137 339.214 274.589 344.332C297.54 348.189 320.513 351.919 344.793 356.54C346.72 356.907 348.583 357.558 350.294 358.518C351.452 359.167 352.427 359.712 353.335 360.101C351.951 359.486 352.61 357.483 354.123 357.562C367.714 358.272 381.612 359.384 395.469 360.881C422.567 363.805 449.631 367.04 476.711 370.139C479.268 370.432 479.036 372.962 476.465 372.843C463.885 372.259 451.206 371.493 438.548 370.379C437.091 370.25 435.635 370.118 434.181 369.981H434.179C457.189 372.154 480.316 373.121 503.393 374.597C503.526 374.606 504.136 375.198 504.19 375.319C504.2 375.341 504.243 375.414 504.265 375.425C507.772 377.287 510.899 379.31 514.103 379.44C540.486 380.502 566.882 381.212 593.983 382.583C609.278 384.84 623.867 386.547 638.457 388.25L627.504 386.952C616.808 385.652 606.021 384.191 594.878 382.099C594.338 381.997 593.697 381.168 593.538 380.642C593.27 379.747 594.143 379.494 595.074 379.562C607.169 380.441 619.267 381.308 631.362 382.211C639.986 382.855 648.606 383.54 657.227 384.213C658.908 384.345 660.19 385.769 660.142 387.454C660.094 389.15 658.717 390.506 657.021 390.528C635.758 390.805 614.452 391.079 592.15 391.25C602.623 390.428 614.184 389.648 625.753 389.042L627.339 388.974C626.809 388.992 626.278 389.014 625.75 389.042C615.06 389.602 604.375 390.312 593.688 390.977C591.952 391.085 590.19 391.557 588.455 391.429C588.082 391.429 587.712 391.49 587.362 391.617C584.934 392.496 581.615 393.723 578.291 393.734C538.096 393.857 497.898 393.797 456.804 393.692C455.61 393.689 455.419 392.018 456.599 391.839C454.233 392.183 451.867 392.719 449.501 393.176C448.028 393.461 446.53 393.985 445.045 393.767C444.863 393.759 444.694 393.759 444.534 393.757C444.561 393.757 444.58 393.781 444.574 393.808C444.501 394.147 444.169 394.428 443.67 394.577C442.895 394.808 442.508 393.878 443.31 393.779C443.479 393.758 443.67 393.747 443.885 393.745C442.764 393.75 442.285 393.854 441.807 393.955C441.807 393.955 441.337 394.049 440.317 393.805C439.954 393.717 439.583 393.653 439.21 393.649C438.95 393.647 438.691 393.671 438.435 393.719C433.068 394.742 426.796 395.913 420.508 396.012C406.844 396.224 393.171 395.781 378.946 394.714C391.778 393.993 404.853 393.668 418.326 393.554C404.747 393.561 391.568 393.689 378.39 393.818C378.39 393.818 378.139 393.852 377.735 393.792C376.612 393.623 375.558 393.093 374.433 392.935C351.987 392.051 329.004 390.741 305.572 388.877C302.332 388.619 301.7 384.414 304.949 384.489C302.281 384.426 299.509 385.408 296.748 386.284C294.753 386.917 292.615 387.187 290.614 386.573C290.298 386.476 289.954 386.361 289.573 386.224C288.765 385.823 288.178 385.528 287.722 385.281C286.847 384.808 285.818 384.54 284.93 384.091C284.817 384.034 284.702 383.968 284.586 383.892C284.466 383.814 284.338 383.743 284.202 383.697C283.984 383.624 283.755 383.609 283.526 383.633C282.909 383.696 282.212 383.678 281.437 383.573C280.423 383.437 280.528 382.66 281.525 382.885C280.208 382.545 279.076 382.341 277.977 382.163C277.822 382.138 277.144 381.615 277.049 381.491C277.03 381.466 276.948 381.38 276.917 381.372C269.677 379.607 262.935 378.45 256.194 377.295C255.552 377.215 255.021 376.951 254.195 375.882C253.772 375.335 253.251 374.865 252.619 374.586C252.543 374.552 252.466 374.519 252.39 374.485C252.205 374.405 252.01 374.352 251.809 374.327C250.255 374.134 248.635 373.85 246.969 373.459C245.598 373.137 245.849 372.101 247.207 372.472C244.633 371.586 242.193 370.898 239.751 370.214C205.996 357.212 179.743 348.472 153.25 310.647C152.78 309.977 152.152 308.79 151.737 308.085C150.93 306.718 150.013 306.024 149.214 304.652C148.822 303.979 148.394 303.153 147.9 302.048C147.211 300.578 146.634 299.583 146.103 298.781C145.435 297.772 144.572 296.914 143.736 296.039C142.909 295.173 142.048 294.089 141.092 292.383C139.314 288.621 137.726 286.124 136.153 283.717C135.984 283.459 135.93 283.011 135.97 282.705C135.979 282.63 135.974 282.398 135.938 282.331C134.729 280.081 133.495 278.357 132.258 276.694C131.916 276.234 131.605 275.746 131.444 275.195C131.359 274.902 131.275 274.542 131.223 274.136C131.198 273.934 131.155 273.733 131.079 273.545C130.333 271.686 129.645 270.573 128.969 269.598C128.805 269.362 128.838 268.696 128.883 268.412C128.89 268.371 128.895 268.239 128.883 268.199C127.775 264.697 126.62 261.715 125.458 258.817C125.018 257.72 124.603 256.593 124.539 255.412C124.502 254.726 124.526 253.854 124.67 252.621C124.945 241.389 124.834 231.321 124.674 221.4C124.629 218.561 125.193 215.749 126.279 213.126C133.031 196.83 138.622 179.813 147.81 165.031C155.559 152.566 168.252 143.041 179.275 132.774C192.724 120.248 205.964 107.29 220.665 96.3633C242.15 80.394 264.459 65.6383 290.004 56.142C306.009 50.1944 320.7 40.7853 336.538 34.2885C359.906 24.7017 383.596 15.8167 407.471 7.56273C435.279 -2.05137 463.427 -10.6894 491.454 -19.6647C493.76 -20.4034 496.24 -20.601 499.846 -20.6923C500.489 -20.7086 501.137 -20.796 501.757 -20.9695C502.255 -21.1092 502.729 -21.2975 503.196 -21.5208C506.582 -23.1409 510.433 -24.468 514.963 -25.9469C513.373 -25.1848 511.61 -24.3858 509.703 -23.602C511.841 -24.431 513.846 -25.2894 515.85 -26.1517C516.078 -26.2801 516.307 -26.4085 516.544 -26.5287C518.609 -27.5729 521.084 -27.3987 523.328 -27.9615C523.507 -28.0064 523.686 -28.0512 523.864 -28.0962C536.027 -32.2634 548.446 -35.9276 561.655 -39.5077C555.144 -37.271 548.397 -35.0574 541.501 -32.9378C548.607 -35.0284 555.599 -37.2196 562.591 -39.4132C577.379 -43.5197 592.129 -47.7739 606.968 -51.6809C616.89 -54.2922 626.908 -56.5612 636.94 -58.7086C648.506 -61.1844 660.138 -63.3587 673.314 -65.0298C674.695 -65.2817 676.057 -65.5442 677.405 -65.81C686.846 -68.4073 696.854 -70.652 707.652 -73.0793C704.827 -72.3255 701.926 -71.5561 698.957 -70.7827C701.143 -71.3437 703.313 -71.9097 705.477 -72.4783C707.566 -73.0274 709.465 -74.2057 711.58 -74.644C712.021 -74.7352 712.519 -74.7996 713.094 -74.8282C717.907 -74.4765 721.804 -74.5503 725.567 -74.6868C726.862 -74.7338 728.149 -74.9108 729.408 -75.2194C739.185 -77.6158 748.89 -80.4747 758.798 -82.0562C777.159 -84.9871 795.799 -86.2959 814.063 -89.673C821.633 -91.0727 829.085 -93.1016 836.797 -95.3451C846.799 -98.2548 851.324 -110.303 845.333 -118.824C835.28 -133.121 825.097 -147.327 814.985 -161.582C809.661 -169.086 803.769 -176.271 799.233 -184.226C793.44 -194.383 796.655 -198.442 807.976 -200.033ZM460.87 391.483C459.51 391.488 458.152 391.62 456.793 391.813C458.131 391.615 459.503 391.488 460.872 391.483H460.87ZM287.73 385.731C287.299 385.481 287.088 385.024 287.534 385.247C287.961 385.461 288.189 385.992 287.773 385.756C287.759 385.748 287.744 385.74 287.73 385.731ZM314.341 385.425C314.517 385.444 314.694 385.463 314.87 385.481C311.804 385.156 308.741 384.838 305.676 384.534L314.341 385.425ZM266.184 379.18C264.957 378.978 265.694 380.136 266.921 380.341C268.155 380.547 267.419 379.383 266.184 379.18ZM514.103 379.437C511.182 379.319 512.136 375.329 515.06 375.374C540.272 375.768 565.773 376.815 591.687 378.502C592.372 378.546 593.067 379.11 593.22 379.78C593.439 380.737 592.523 381.374 591.542 381.367C565.71 381.178 539.899 380.476 514.103 379.437ZM353.515 360.176C354.01 360.376 354.485 360.539 354.965 360.631C354.478 360.537 353.998 360.379 353.515 360.176ZM223.774 160.239C224.175 159.653 223.18 160.005 222.772 160.586C222.352 161.184 223.362 160.842 223.774 160.239ZM339.959 83.7089C340.44 83.3184 341.07 83.4365 340.649 83.8914C340.275 84.2952 339.452 84.1686 339.857 83.7966C339.889 83.7673 339.923 83.7381 339.959 83.7089ZM386.635 64.9295C387.009 64.4591 387.704 64.5572 387.437 65.0956C387.184 65.6053 386.244 65.5535 386.539 65.0669C386.567 65.021 386.599 64.9752 386.635 64.9295ZM841.051 -39.2706C839.534 -39.1 838.014 -38.9259 836.496 -38.7483C839.486 -39.0984 842.479 -39.4347 845.475 -39.7561L841.051 -39.2706ZM1089.85 -56.2325C1076.54 -54.6648 1062.24 -53.1274 1046.9 -51.69C1060.19 -53.2797 1074.52 -54.7731 1089.85 -56.2325ZM1276.49 -74.2477C1275.49 -74.3179 1276.48 -73.4171 1277.48 -73.3389C1278.5 -73.2594 1277.5 -74.1763 1276.49 -74.2477ZM718.513 -75.238C717.767 -75.2284 718.781 -74.6112 719.526 -74.6059C720.3 -74.6003 719.287 -75.248 718.513 -75.238ZM1461.62 -180.054C1460.71 -180.164 1461.39 -179.241 1462.3 -179.118C1463.23 -178.991 1462.56 -179.94 1461.62 -180.054Z" fill="#806861"/>
</g>
</svg>
