<svg width="213" height="50" viewBox="0 0 213 50" fill="none" xmlns="http://www.w3.org/2000/svg">
<path d="M49.0068 0.0272869C50.1458 -0.132716 51.0576 0.442392 51.9427 0.93227C54.4568 2.32348 56.9102 3.82427 59.3863 5.28408C59.5516 5.38152 59.7062 5.49707 59.9559 5.68013C59.9884 5.69319 60.0207 5.70584 60.0528 5.71793C60.0399 5.71286 60.0269 5.70797 60.0139 5.70273C60.8301 5.57971 61.6784 5.50999 62.6003 5.45272C62.2446 5.71793 61.8607 5.87412 61.4538 5.92469C61.8781 5.87876 62.2818 5.72551 62.6737 5.46526C64.1186 5.22762 65.5636 4.98995 66.9007 4.77003C66.7811 4.44303 66.6821 4.17295 66.5832 3.90283C66.9465 3.8654 67.31 3.82797 67.7374 3.90912C67.7556 3.92824 67.7735 3.94673 67.7906 3.96473C69.686 3.75646 71.6074 3.60893 73.5954 3.49754C73.6635 3.60182 73.6644 3.66985 73.6652 3.73782C71.8263 3.90379 69.9878 4.07387 68.148 4.22562L68.8379 4.16803C70.4486 4.03158 72.0651 3.88346 73.7368 3.74045C73.6644 3.66995 73.6635 3.60201 73.6632 3.48303C74.8494 3.31398 76.0352 3.19587 77.2968 3.09028C77.2488 3.18619 77.1462 3.32487 77.0249 3.36519C77.1471 3.32503 77.2564 3.18742 77.3726 3.10265C77.4962 3.09107 77.6195 3.07958 77.8826 3.06996C77.9144 3.06594 77.946 3.06178 77.9778 3.05776C78.5379 2.89459 79.1649 2.69531 79.8073 2.59074C81.1916 2.36541 82.5844 2.19156 84.0499 2.04155C84.1319 2.13635 84.1373 2.18635 84.1429 2.23627C83.0012 2.39211 81.8596 2.54755 80.7044 2.70263C81.877 2.54735 83.0352 2.39209 84.2164 2.23644C85.0376 2.17292 85.7995 2.14402 86.5453 2.03743C85.7995 2.14402 85.0376 2.17275 84.2164 2.23627C84.1373 2.18639 84.1317 2.13647 84.1177 2.01167C85.2527 1.80813 86.3966 1.67935 87.6136 1.54731C87.3729 1.69698 87.0804 1.92887 86.7589 2.00245L86.8229 1.98577C87.1205 1.89839 87.3983 1.68683 87.6871 1.54417C87.693 1.48295 87.7229 1.4376 87.8408 1.46579C87.9706 1.46508 88.0992 1.46309 88.227 1.46051C88.1126 1.4627 87.9978 1.46424 87.8829 1.4648C88.7625 1.34071 89.6638 1.27504 90.6405 1.19548C90.6951 1.2324 90.6779 1.32603 90.6534 1.32799C90.1599 1.3659 89.6662 1.40101 89.1689 1.42635C89.6704 1.4009 90.162 1.36573 90.6534 1.32799C90.6779 1.32605 90.6951 1.23266 90.7157 1.18178C90.7161 1.18277 90.7199 1.19348 90.7848 1.20258C90.7749 1.10812 90.8463 0.949311 90.9134 0.951082C92.1325 0.983822 93.3508 1.03621 94.6046 1.14333C93.5732 1.19622 92.5167 1.20692 91.4079 1.20555C92.515 1.20826 93.5776 1.20552 94.64 1.20241C94.9286 1.26296 95.217 1.32357 95.5966 1.44962C95.8622 1.53203 96.0366 1.54903 96.2111 1.56596C96.2111 1.56596 96.2745 1.59106 96.2238 1.65804C95.9379 1.84638 95.6859 1.98937 95.3422 2.17785C95.6861 1.99021 95.9398 1.852 96.2346 1.69022C96.4325 1.67713 96.5692 1.69875 96.7575 1.73147C96.6495 2.66168 96.0695 2.6376 95.1036 2.30839L95.1035 2.30856C96.0695 2.63782 96.6495 2.66182 96.8093 1.74269C97.4687 2.30721 98.1406 2.85821 98.7829 3.44161C99.1293 3.7563 99.1262 4.05603 98.6255 4.24872C98.0633 4.46515 97.5096 4.70406 96.8337 4.91294C96.8065 4.91418 96.7798 4.91539 96.7532 4.91658C94.7033 5.44106 92.6049 5.9811 90.4886 6.43708C89.3416 6.68421 88.1636 6.78705 86.9245 6.94667C88.1568 6.67726 89.4686 6.4357 90.7708 6.14995C89.4686 6.4357 88.1568 6.67728 86.8494 6.93842C86.8494 6.93842 86.779 6.96505 86.6848 6.97704C86.6745 6.99792 86.6649 7.01872 86.6561 7.03942C86.6752 7.21304 86.6504 7.39941 86.5835 7.61304C86.5667 7.51809 86.5639 7.41409 86.5752 7.30378C86.5517 7.4195 86.541 7.5335 86.5307 7.64753C86.3982 7.8551 86.2659 8.0628 86.0263 8.30365C86.0044 8.32591 85.9836 8.34772 85.964 8.36917C85.9232 8.50341 85.8369 8.64797 85.7066 8.80846C85.7245 8.73491 85.7565 8.65613 85.8029 8.5733C85.7434 8.66124 85.6982 8.74473 85.6529 8.82826C85.4753 8.90288 85.3024 9.02464 85.1191 9.04329C84.5589 9.10029 83.9945 9.11764 83.3081 9.12035C82.8159 9.05674 82.4473 9.02323 82.0788 8.98966C82.0786 8.98967 82.0036 8.99408 81.9363 8.94526C81.9165 8.94275 81.8974 8.94101 81.8789 8.93932C81.7906 8.97034 81.6732 8.97453 81.5042 8.97134C81.5433 8.95669 81.5965 8.94393 81.6607 8.93602C81.5828 8.94116 81.513 8.95212 81.4431 8.96309C81.3058 9.06955 81.1686 9.17603 80.9106 9.30006C79.7286 9.56717 78.654 9.65337 77.5516 9.49148C78.6527 9.65381 79.7201 9.5705 80.8618 9.31953C79.7014 9.80328 78.569 10.1682 77.1394 9.60056C76.0874 9.18291 74.7452 9.40807 73.5415 9.48719C72.4526 9.55879 71.3752 9.81548 70.295 10.0034C70.1125 10.0351 69.9414 10.1317 69.6948 10.2052C69.7969 10.0981 69.9373 9.93718 70.1065 9.85801C69.9358 9.93726 69.7864 10.0991 69.6245 10.2121C69.6244 10.2112 69.6201 10.1964 69.5826 10.1907C69.55 10.2426 69.4653 10.2912 69.3254 10.3466C69.3559 10.298 69.4412 10.2423 69.5794 10.1902C69.5782 10.19 69.577 10.1898 69.5757 10.1897C69.4432 10.2411 69.3562 10.2975 69.269 10.3539C69.2692 10.3531 69.2717 10.3374 69.2105 10.3374C68.1196 10.4443 67.0917 10.5514 66.0639 10.6584C66.0639 10.6584 65.9984 10.686 65.8819 10.6749C65.8703 10.6747 65.8586 10.6742 65.8468 10.674C65.8642 10.7314 65.8071 10.8144 65.7412 10.8217C64.658 10.9428 63.5737 11.0541 62.4199 11.1567C62.8269 11.0163 63.2761 10.8419 63.7435 10.7405C63.2742 10.8416 62.8153 11.0146 62.3502 11.146C61.9993 11.1566 61.6481 11.1671 61.1682 11.1239C61.0891 11.1225 61.0106 11.1216 60.9323 11.1206C59.9098 11.1648 58.8375 11.1718 57.6941 11.1706C58.2146 11.1515 58.7538 11.1343 59.3089 11.1234C58.7344 11.1321 58.1751 11.1473 57.6159 11.1623C57.6137 11.1631 57.5432 11.1891 57.4297 11.1783C57.3898 11.1809 57.3503 11.1836 57.3112 11.1863C56.8308 11.2454 56.2811 11.297 55.6632 11.3414C55.9435 11.3061 56.2478 11.2732 56.5763 11.2429C56.2331 11.2721 55.9102 11.3027 55.5873 11.3338C55.5873 11.3338 55.5244 11.3618 55.4514 11.378C55.4376 11.3842 55.4246 11.39 55.4126 11.3957C55.4009 11.4249 55.3639 11.4635 55.2968 11.5008C55.2948 11.4816 55.3056 11.463 55.3277 11.4419C55.2949 11.4625 55.2726 11.4809 55.2503 11.4992C55.065 11.5049 54.8796 11.5107 54.5729 11.4642C54.5229 11.4632 54.4732 11.4625 54.4237 11.4615C51.9121 11.7314 49.3489 11.9613 46.7097 12.1835C47.936 12.0085 49.2052 11.8211 50.4881 11.6615C49.2015 11.8208 47.9179 12.0065 46.6323 12.1757C46.6323 12.1757 46.5634 12.2046 46.4488 12.1974C46.4072 12.2027 46.3657 12.2081 46.3243 12.2135C45.2869 12.4364 44.1807 12.6685 43.0685 12.8662C41.9968 13.0566 40.9184 13.2089 39.7725 13.3707C39.9226 13.265 40.1189 13.1152 40.3354 13.0538L40.382 13.0421C40.147 13.0936 39.9288 13.2572 39.7021 13.3636C39.6296 13.3738 39.5571 13.3841 39.3834 13.3589C39.3394 13.3652 39.2955 13.3717 39.2517 13.3779C37.8916 13.6817 36.4825 13.9262 35.086 14.2291C33.7337 14.5225 32.3952 14.8795 30.984 15.2097C31.1684 15.0774 31.3912 14.8983 31.6427 14.8014C31.3902 14.8983 31.1601 15.0775 30.9174 15.2108C30.8492 15.2239 30.7809 15.237 30.5866 15.2394C30.5022 15.2592 30.4184 15.2794 30.3349 15.2993C29.5069 15.5639 28.621 15.8231 27.7352 16.0828C27.3736 16.1889 27.0126 16.2979 26.5876 16.368C26.5253 16.331 26.5276 16.2778 26.5278 16.2759C27.2313 16.0885 27.9349 15.9012 28.6499 15.715C27.9197 15.8994 27.1998 16.0841 26.4606 16.266C26.5278 16.276 26.5241 16.3303 26.5217 16.3574C25.9443 16.5667 25.3694 16.749 24.728 16.9223C25.1957 16.7134 25.7196 16.5123 26.2999 16.3191C25.7191 16.5123 25.19 16.7126 24.6612 16.9133C24.5332 16.9775 24.4051 17.0418 24.1856 17.0771C24.1631 17.0811 24.1413 17.0857 24.1198 17.0899C23.9699 17.1737 23.7847 17.2244 23.5397 17.2843C23.5935 17.2572 23.656 17.2287 23.7259 17.2013L23.7972 17.1747C23.683 17.2121 23.5801 17.2532 23.4774 17.2942C23.4774 17.2942 23.4826 17.2741 23.4243 17.269C22.9528 17.4289 22.5395 17.594 22.1264 17.7591C22.1248 17.7598 22.0594 17.7839 21.9743 17.7878C21.9564 17.7927 21.9393 17.7976 21.9232 17.8025C21.8802 17.8441 21.7977 17.8894 21.674 17.9304C21.6933 17.9034 21.7281 17.8781 21.7781 17.8525C21.7166 17.877 21.6686 17.901 21.6206 17.925C21.4969 17.9887 21.3734 18.0524 21.1373 18.1113C21.1106 18.1165 21.0851 18.1217 21.0606 18.127C20.978 18.1812 20.8467 18.2316 20.6654 18.275C20.7081 18.242 20.7683 18.2115 20.8455 18.1826C20.7542 18.2103 20.6797 18.2388 20.6052 18.2674C20.603 18.2682 20.539 18.2916 20.4514 18.2954C20.4325 18.3025 20.4146 18.3095 20.3977 18.3164C20.3559 18.3602 20.276 18.4097 20.1581 18.4685C20.1736 18.446 20.2013 18.4203 20.2412 18.3923C20.1888 18.4225 20.1469 18.4526 20.105 18.4823C19.7219 18.6045 19.3389 18.7265 18.8912 18.9209C18.7861 19.0216 18.7596 19.0601 18.7474 19.1083C18.6704 19.117 18.5933 19.126 18.438 19.1079C18.4169 19.1025 18.3981 19.0991 18.3816 19.0968C18.3986 19.1116 18.3221 19.1311 18.2844 19.1439C18.2797 19.1282 18.2819 19.1147 18.2902 19.105C18.2695 19.1159 18.2567 19.1338 18.2461 19.1573C18.1749 19.2061 18.1036 19.2549 17.9287 19.3051C17.9049 19.3129 17.8826 19.3208 17.8618 19.3286C17.8195 19.3747 17.7376 19.4241 17.6163 19.4814C17.6316 19.4574 17.6593 19.431 17.6994 19.4031C17.6455 19.433 17.6032 19.4628 17.5608 19.4927C17.5612 19.4913 17.5656 19.4694 17.5106 19.4655C17.1544 19.585 16.855 19.7086 16.5556 19.8323C16.3707 19.9385 16.1858 20.0448 15.913 20.1243C15.8894 20.1313 15.8673 20.1387 15.8465 20.1463C15.7966 20.2176 15.7182 20.2631 15.5968 20.32C15.6167 20.2906 15.6467 20.2584 15.6851 20.2276C15.6337 20.2614 15.5908 20.2976 15.548 20.3339C15.5476 20.3327 15.5407 20.3119 15.5184 20.3298C15.4437 20.3687 15.4024 20.402 15.3714 20.4481C14.2859 20.9495 13.1652 21.3878 12.1246 21.9695C11.0624 22.5633 10.0508 23.2597 9.07061 23.9837C8.426 24.4599 7.87635 25.0647 7.20884 25.6746C7.06217 25.847 6.99077 25.9565 6.9194 26.0661C6.39939 26.7228 5.8793 27.3796 5.26788 28.0949C5.24878 28.1181 5.23175 28.1399 5.21639 28.1607C5.20977 28.2256 5.17611 28.3122 5.11111 28.4172C5.1066 28.3834 5.11321 28.3432 5.13009 28.2955C5.10108 28.3499 5.08269 28.3976 5.06441 28.4451C4.99131 28.5924 4.91819 28.7396 4.75235 28.9437C4.73425 28.9649 4.71766 28.985 4.70252 29.0044C4.69243 29.0742 4.65069 29.1681 4.5733 29.2841C4.57085 29.2477 4.58089 29.2036 4.60268 29.1512C4.56826 29.2109 4.54549 29.2636 4.52264 29.3163C4.25053 29.8579 3.98614 30.4037 3.70481 30.9406C2.90515 32.4665 3.59894 35.3054 4.87233 36.4567C6.5693 37.9909 8.57685 38.6979 10.7604 39.065C12.4717 39.3526 14.1846 39.6304 16.0028 39.9803C16.1764 40.0716 16.2983 40.1493 16.4069 40.1958C16.3041 40.1502 16.1994 40.0757 16.0782 39.9951C17.1745 40.0441 18.3032 40.1302 19.4281 40.2517C21.3712 40.4614 23.3118 40.6935 25.2535 40.9157C25.8828 40.9878 26.5124 41.0583 27.1833 41.1844C25.6527 41.1343 24.0827 41.0706 22.517 40.9329C22.4126 40.9236 22.3082 40.9142 22.2039 40.9043H22.2038C23.8729 41.062 25.5506 41.1311 27.2245 41.2391C27.223 41.2394 27.2027 41.2438 27.2269 41.2935C27.4793 41.4274 27.7043 41.5734 27.9347 41.5826C29.8265 41.6589 31.7192 41.7097 33.6625 41.8081C34.7592 41.97 35.8054 42.0923 36.8515 42.2145L36.0661 42.1214C35.2793 42.0257 34.4856 41.9179 33.6645 41.7616C33.6166 41.6445 33.6172 41.6134 33.6177 41.5825C34.526 41.6485 35.4345 41.7136 36.3427 41.7814C37.0328 41.8329 37.7226 41.8882 38.4126 41.9417C38.4085 42.086 38.4043 42.2305 38.4002 42.375C36.8032 42.3958 35.2063 42.4167 33.5311 42.4296C34.282 42.3706 35.111 42.3147 35.9406 42.2713L36.0543 42.2663C36.0163 42.2677 35.9782 42.2692 35.9404 42.2713C35.1109 42.3147 34.2818 42.3708 33.4526 42.4216C33.4513 42.4223 33.3832 42.451 33.2661 42.4424C33.2526 42.4424 33.2391 42.4424 33.2257 42.4423C33.0493 42.5053 32.7934 42.6068 32.5373 42.6077C29.4583 42.6172 26.3789 42.6116 23.2214 42.6031C23.3897 42.5627 23.5946 42.5048 23.8114 42.4718C23.5886 42.5043 23.3657 42.5604 23.1428 42.5964C23.1428 42.5964 23.0826 42.6248 22.9829 42.6101C22.9699 42.6096 22.9577 42.6096 22.9463 42.6094C22.9474 42.6094 22.9486 42.6094 22.9498 42.6096C22.9432 42.656 22.87 42.6885 22.7739 42.6722C22.7915 42.6239 22.8251 42.6092 22.8998 42.6085C22.8194 42.6089 22.785 42.6163 22.7507 42.6236C22.7507 42.6236 22.7051 42.6327 22.6049 42.6021C22.5821 42.6018 22.5593 42.6016 22.5365 42.6014C22.1456 42.676 21.6852 42.7638 21.2235 42.7711C20.2437 42.7863 19.2633 42.7545 18.2433 42.678C19.1634 42.6263 20.101 42.603 21.067 42.5949C20.0934 42.5954 19.1484 42.6045 18.2035 42.6138C18.2035 42.6138 18.13 42.6237 18.0421 42.5676C18.0014 42.5617 17.9605 42.5562 17.9198 42.5504C16.0533 42.4769 14.1352 42.3623 12.175 42.1923C12.4028 42.0762 12.6759 41.9387 12.9374 41.9448C12.6757 41.9385 12.4001 42.0727 12.1316 42.1356C12.0588 42.1295 11.9859 42.1236 11.8349 42.0691C11.7026 42.0036 11.6532 41.9774 11.6086 41.9422C11.6062 41.9424 11.5356 41.946 11.4646 41.8931C11.4515 41.8885 11.4387 41.8843 11.4261 41.8801C11.3181 41.8976 11.1723 41.8763 10.9896 41.813C11.0621 41.7996 11.1513 41.8057 11.2578 41.8297C11.1425 41.8 11.047 41.7847 10.9515 41.7697C10.9515 41.7697 10.9667 41.7662 10.9307 41.7221C10.4103 41.595 9.92584 41.5118 9.4414 41.4289C9.38495 41.4218 9.3404 41.3949 9.2541 41.2658C9.2185 41.2492 9.18332 41.2337 9.14866 41.2187C8.87768 41.1867 8.57759 41.1166 8.27075 40.9904C8.44175 41.0005 8.61524 41.0333 8.79701 41.083C8.61242 41.0194 8.43744 40.9701 8.26234 40.9211C6.1283 39.5952 3.90741 38.3958 2.0089 36.5762C1.94294 36.4385 1.90948 36.3962 1.86499 36.3628C1.80977 36.2854 1.7545 36.2078 1.67621 36.0327C1.59255 35.8543 1.53202 35.7733 1.47142 35.6924C1.38232 35.6099 1.2932 35.5273 1.18808 35.3396C1.0507 35.0491 0.929226 34.8637 0.807871 34.6783C0.807871 34.6783 0.819971 34.6767 0.822393 34.6261C0.722427 34.4386 0.619984 34.3018 0.5176 34.165C0.5176 34.165 0.485409 34.1001 0.47816 34.0092C0.409164 33.8317 0.347333 33.7452 0.285581 33.6587C0.285581 33.6587 0.309171 33.6634 0.313965 33.6097C0.219014 33.3087 0.119146 33.0615 0.0194029 32.8143C0.0043063 32.7421 -0.0106834 32.6698 0.0104918 32.4882C0.0330919 31.566 0.0193735 30.7532 0.00570618 29.9404C0.546462 28.6872 0.95723 27.3533 1.66977 26.2069C2.22543 25.313 3.13558 24.6299 3.92593 23.8937C4.89027 22.9954 5.83966 22.0661 6.89383 21.2826C8.43438 20.1374 10.034 19.0792 11.8657 18.3982C13.0134 17.9717 14.0668 17.2969 15.2024 16.831C16.8781 16.1435 18.5767 15.5064 20.2887 14.9145C22.2827 14.225 24.301 13.6055 26.3107 12.9619C26.4905 12.9043 26.685 12.8926 26.9819 12.8867C27.0231 12.876 27.0631 12.8645 27.1025 12.8533C27.3573 12.7258 27.649 12.6248 27.9964 12.5114C27.8824 12.566 27.756 12.6233 27.6193 12.6796C27.7725 12.6201 27.9163 12.5585 28.06 12.4967C28.136 12.454 28.2122 12.4113 28.3528 12.4269C28.4473 12.4042 28.541 12.3808 28.6347 12.3573C29.5068 12.0584 30.3973 11.7957 31.3444 11.5389C30.8775 11.6993 30.3938 11.8581 29.8993 12.0101C30.4088 11.8601 30.9102 11.703 31.4115 11.5457C32.4719 11.2512 33.5295 10.9461 34.5936 10.6659C35.305 10.4787 36.0233 10.316 36.7427 10.162C37.5721 9.98442 38.4062 9.8285 39.3509 9.70866C39.4499 9.6906 39.5476 9.67177 39.6443 9.65271C40.3212 9.46646 41.0389 9.30548 41.8131 9.13142C41.6105 9.18547 41.4025 9.24065 41.1896 9.29611C41.4226 9.23632 41.653 9.17574 41.8833 9.11491C41.9598 9.06458 42.0364 9.01431 42.2033 9.006C42.6082 9.03559 42.9227 9.02318 43.2373 9.01078C43.9844 8.83294 44.7242 8.6084 45.4805 8.48766C46.7971 8.27748 48.1337 8.18362 49.4433 7.94144C50.4449 7.75623 51.4178 7.41735 52.5318 7.1117C52.2747 6.72763 51.9892 6.28287 51.6855 5.85093C50.9646 4.8257 50.2345 3.80693 49.5094 2.78465C49.1277 2.24654 48.7052 1.7313 48.3799 1.16082C47.9646 0.432397 48.195 0.141369 49.0068 0.0272869ZM24.1176 42.4463C24.0201 42.4467 23.9228 42.4561 23.8253 42.47C23.9213 42.4558 24.0196 42.4467 24.1178 42.4463H24.1176ZM11.6306 41.982C11.6533 41.9774 11.7026 42.0036 11.7822 42.0539C11.7561 42.0651 11.7042 42.0433 11.6306 41.982ZM13.6108 42.0119C13.6235 42.0132 13.6361 42.0146 13.6488 42.0159C13.4289 41.9926 13.2093 41.9698 12.9895 41.948L13.6108 42.0119ZM9.47425 41.488C9.92589 41.5118 10.4104 41.5948 10.9325 41.7297C10.4825 41.7035 9.99478 41.6252 9.47425 41.488ZM27.2259 41.2819C29.3126 41.2989 31.4254 41.379 33.578 41.5206C33.6171 41.6132 33.6166 41.6443 33.6139 41.7217C31.7194 41.7096 29.8265 41.6587 27.9347 41.5825C27.7043 41.5732 27.4795 41.4274 27.2259 41.2819ZM16.4198 40.2012C16.4553 40.2156 16.4893 40.2272 16.5237 40.2338C16.4888 40.2271 16.4544 40.2157 16.4198 40.2012ZM7.1846 25.726C7.16018 25.817 7.08473 25.9193 6.96429 26.0438C6.99076 25.9565 7.06208 25.8468 7.1846 25.726ZM15.5298 20.3266C15.5302 20.3543 15.4962 20.4037 15.4168 20.4505C15.4024 20.4018 15.4437 20.3685 15.5298 20.3266ZM17.5221 19.4687C17.2876 19.5858 16.9846 19.6955 16.6186 19.8187C16.855 19.7085 17.1544 19.5848 17.5221 19.4687ZM18.8586 18.9766C18.8721 19.0104 18.8539 19.0606 18.7917 19.1096C18.7596 19.0601 18.7861 19.0216 18.8586 18.9766ZM23.4343 17.2716C23.0863 17.4439 22.6701 17.6084 22.1902 17.7659C22.5397 17.594 22.9528 17.4287 23.4343 17.2716ZM51.3785 11.5559C51.2697 11.5681 51.1607 11.5806 51.0518 11.5934C51.2663 11.5683 51.4809 11.5442 51.6957 11.5211L51.3785 11.5559ZM69.2186 10.3395C68.2644 10.452 67.239 10.5622 66.1388 10.6653C67.0917 10.5513 68.1196 10.4442 69.2186 10.3395ZM82.1171 9.04163C82.4473 9.0231 82.8159 9.05671 83.2422 9.12513C82.9184 9.13792 82.5369 9.11582 82.1171 9.04163ZM42.2532 9.00022C42.5134 8.9634 42.814 8.97426 43.1758 8.9979C42.9227 9.0231 42.6082 9.03548 42.2532 9.00022ZM95.6608 1.46265C95.8009 1.43734 95.9678 1.46446 96.173 1.52866C96.0366 1.54893 95.8622 1.53191 95.6608 1.46265Z" fill="#624A43"/>
<path d="M32.1753 23.2901V23.8479H30.4589V35.6041H31.6175C31.689 35.6041 31.7604 35.6113 31.8319 35.6255C32.0607 35.6685 32.1753 35.8472 32.1753 36.1619H26.7905V35.6041H28.5069V25.2853L23.637 36.2907H23.1865L18.5098 26.5939V35.6041H19.6683C19.7398 35.6041 19.8113 35.6113 19.8828 35.6255C20.1117 35.6685 20.2261 35.8472 20.2261 36.1619H15.9355V35.6041H17.6517V23.8479H15.9355V23.2901H19.1535L24.0446 33.5232L28.5069 23.2901H32.1753ZM39.4366 36.1619H33.9447V35.6041H35.6609V23.8479H33.9447V23.2901H40.4662C41.5818 23.2901 42.5257 23.5477 43.2979 24.0624C44.2275 24.706 44.6924 25.5641 44.6924 26.6368C44.6924 27.0659 44.6065 27.4878 44.435 27.9025C43.9487 28.9894 43.0191 29.7116 41.6462 30.0692L45.0785 35.6041H45.7865C45.8724 35.6041 45.9509 35.6113 46.0224 35.6255C46.2085 35.6541 46.3014 35.8329 46.3014 36.1619H42.9547L39.5652 30.2624H37.7202V35.6041H39.4366V36.1619ZM39.6939 23.8479H37.7202V29.6402H39.7798C40.3947 29.6402 40.9239 29.4614 41.3672 29.1038C42.0823 28.5462 42.4399 27.7381 42.4399 26.6797C42.4399 26.222 42.354 25.7858 42.1825 25.3711C41.7247 24.3556 40.8952 23.8479 39.6939 23.8479ZM57.1238 36.1619H47.513V35.6041H49.2292V23.8479H47.513V23.2901H53.1122V23.8479H51.2887V35.6041H54.099C54.2991 35.6041 54.4923 35.5826 54.6781 35.5397C55.4647 35.3394 56.0225 34.6101 56.3516 33.3515L56.7591 31.807H57.2311L57.1238 36.1619ZM58.0566 23.8479V23.2901H63.527V23.8479H61.8323V31.2278C61.8323 32.0858 61.918 32.8295 62.0896 33.4588C62.5187 35.0035 63.5914 35.7758 65.3075 35.7758C65.4076 35.7758 65.5149 35.7758 65.6293 35.7758C67.8032 35.6184 68.8901 34.1167 68.8901 31.2707V23.8479H67.1739V23.2901H71.3572V23.8479H69.6411V31.1419C69.6411 32 69.5552 32.7508 69.3835 33.3945C68.8401 35.3824 67.3313 36.3765 64.857 36.3765C61.4962 36.3621 59.8013 34.6889 59.7727 31.3564V23.8479H58.0566ZM76.087 36.1619H72.0969C72.0969 36.0904 72.104 36.0189 72.1183 35.9473C72.1612 35.7185 72.34 35.6041 72.6547 35.6041C73.241 35.6041 73.6844 35.4038 73.9847 35.0035L77.6102 30.0048L73.5127 23.8479H72.2042V23.2901H77.3958V23.8479H75.8511L78.9617 28.4818L82.3084 23.8479H80.5922V23.2901H84.3463C84.3177 23.5477 84.1247 23.7335 83.7672 23.8479C83.6813 23.8479 83.5955 23.8479 83.5097 23.8479C83.1808 23.8765 82.8876 24.0767 82.6301 24.4487L79.3264 29.0181L83.7672 35.6041H84.4536C84.5251 35.6041 84.5965 35.6113 84.6682 35.6255C84.897 35.6685 85.0114 35.8472 85.0114 36.1619H79.7983V35.6041H81.3644L77.9963 30.5626L74.3708 35.6041H76.087V36.1619ZM85.6652 23.8479V23.2901H91.1358V23.8479H89.4409V31.2278C89.4409 32.0858 89.5267 32.8295 89.6984 33.4588C90.1275 35.0035 91.2 35.7758 92.9163 35.7758C93.0163 35.7758 93.1236 35.7758 93.2381 35.7758C95.4118 35.6184 96.4989 34.1167 96.4989 31.2707V23.8479H94.7827V23.2901H98.9658V23.8479H97.2497V31.1419C97.2497 32 97.1638 32.7508 96.9923 33.3945C96.4489 35.3824 94.94 36.3765 92.4658 36.3765C89.1048 36.3621 87.4101 34.6889 87.3815 31.3564V23.8479H85.6652ZM105.777 36.1619H100.285V35.6041H102.001V23.8479H100.285V23.2901H106.806C107.922 23.2901 108.866 23.5477 109.638 24.0624C110.568 24.706 111.033 25.5641 111.033 26.6368C111.033 27.0659 110.947 27.4878 110.775 27.9025C110.289 28.9894 109.359 29.7116 107.986 30.0692L111.419 35.6041H112.127C112.212 35.6041 112.291 35.6113 112.363 35.6255C112.549 35.6541 112.641 35.8329 112.641 36.1619H109.295L105.905 30.2624H104.06V35.6041H105.777V36.1619ZM106.034 23.8479H104.06V29.6402H106.12C106.735 29.6402 107.264 29.4614 107.707 29.1038C108.423 28.5462 108.78 27.7381 108.78 26.6797C108.78 26.222 108.694 25.7858 108.523 25.3711C108.065 24.3556 107.235 23.8479 106.034 23.8479ZM121.941 36.1619H116.406V35.6041H118.144V30.9702L114.132 23.8479H112.995V23.2901H118.058V23.8479H116.427L119.796 30.0263L122.971 23.8479H121.254V23.2901H125.073C125.073 23.3616 125.066 23.4331 125.051 23.5047C125.008 23.7335 124.83 23.8479 124.515 23.8479C124.072 23.8765 123.693 24.0767 123.378 24.4487L120.203 30.7772V35.6041H121.362C121.633 35.6326 121.826 35.8187 121.941 36.1619ZM134.651 36.1619H128.516V35.6041H130.554V23.8479H129.567C128.38 23.8623 127.586 24.5987 127.186 26.0576L126.778 27.5808H126.177L126.285 23.2901H136.989L137.075 27.5808H136.475L136.067 26.0576C135.681 24.5987 134.894 23.8623 133.707 23.8479H132.613V35.6041H134.093C134.165 35.6041 134.236 35.6113 134.308 35.6255C134.537 35.6685 134.651 35.8472 134.651 36.1619ZM144.444 36.1619H138.952V35.6041H140.668V23.8479H138.952V23.2901H145.474C146.589 23.2901 147.533 23.5477 148.305 24.0624C149.235 24.706 149.7 25.5641 149.7 26.6368C149.7 27.0659 149.614 27.4878 149.442 27.9025C148.956 28.9894 148.026 29.7116 146.653 30.0692L150.086 35.6041H150.794C150.88 35.6041 150.958 35.6113 151.03 35.6255C151.216 35.6541 151.309 35.8329 151.309 36.1619H147.962L144.573 30.2624H142.728V35.6041H144.444V36.1619ZM144.701 23.8479H142.728V29.6402H144.787C145.402 29.6402 145.931 29.4614 146.375 29.1038C147.09 28.5462 147.447 27.7381 147.447 26.6797C147.447 26.222 147.361 25.7858 147.19 25.3711C146.732 24.3556 145.903 23.8479 144.701 23.8479ZM165.049 36.1619H160.179V35.6041H161.616L160.007 31.4422H155.567L153.958 35.6041H155.052C155.123 35.6041 155.195 35.6113 155.266 35.6255C155.481 35.6541 155.588 35.8329 155.588 36.1619H151.748V35.6041H153.1L157.883 23.2901H158.849L163.783 35.6041H164.491C164.562 35.6041 164.634 35.6113 164.705 35.6255C164.934 35.6541 165.049 35.8329 165.049 36.1619ZM159.75 30.8202L157.776 25.6929L155.803 30.8202H159.75ZM172.439 36.2692H172.138C171.866 36.2692 171.651 36.2192 171.494 36.119C171.295 35.976 171.038 35.4826 170.722 34.6387L166.603 23.8479H165.359V23.2901H170.401V23.8479H168.684L172.525 33.7806L176.043 23.8479H174.326V23.2901H177.931V23.8479H176.858L172.439 36.2692ZM189.311 27.1946H188.838L188.495 26.1005C188.495 26.0719 188.489 26.0432 188.473 26.0146C188.031 24.5702 187.258 23.8479 186.157 23.8479H182.917V29.2111H187.294V29.8333H182.917V35.6041H186.157C186.371 35.6041 186.579 35.5755 186.78 35.5182C187.552 35.3038 188.124 34.5816 188.495 33.3515L188.838 32.2575H189.311L189.203 36.1619H179.142V35.6041H180.859V23.8479H179.142V23.2901H189.203L189.311 27.1946ZM201.184 36.1619H191.574V35.6041H193.289V23.8479H191.574V23.2901H197.172V23.8479H195.349V35.6041H198.159C198.36 35.6041 198.553 35.5826 198.739 35.5397C199.525 35.3394 200.082 34.6101 200.412 33.3515L200.819 31.807H201.292L201.184 36.1619ZM212.457 32.7508C212.457 33.6376 212.136 34.4028 211.492 35.0463C210.576 35.9331 209.29 36.3765 207.631 36.3765C206.201 36.3765 204.934 36.0117 203.834 35.2823C203.834 35.5684 203.818 35.7758 203.79 35.9045C203.719 36.1046 203.511 36.2048 203.168 36.2048V31.7426H203.854C203.869 31.8856 203.883 32.0358 203.898 32.1932C204.227 34.5816 205.427 35.7758 207.502 35.7758C208.031 35.7758 208.518 35.6828 208.961 35.4968C209.905 35.0677 210.377 34.3528 210.377 33.3515C210.377 32.9798 210.29 32.6364 210.12 32.3217C209.775 31.7212 208.967 31.1348 207.695 30.5626C206.308 29.9333 205.493 29.5472 205.25 29.4043C203.92 28.6462 203.254 27.6666 203.254 26.4651C203.254 25.65 203.548 24.9492 204.134 24.3628C205.006 23.5047 206.221 23.0757 207.781 23.0757C209.053 23.0757 210.219 23.3545 211.277 23.9123C211.277 23.7692 211.293 23.6477 211.32 23.5477C211.363 23.3045 211.571 23.1828 211.943 23.1828V26.9586H211.255C211.271 26.1434 211.063 25.4568 210.633 24.8992C210.018 24.0838 209.118 23.6762 207.931 23.6762C207.474 23.6762 207.051 23.755 206.666 23.9123C205.779 24.2699 205.334 24.9063 205.334 25.8217C205.334 26.1649 205.414 26.4937 205.571 26.8083C205.9 27.3947 206.695 27.9669 207.952 28.5247C209.354 29.154 210.169 29.5401 210.399 29.6831C211.771 30.4697 212.457 31.4924 212.457 32.7508Z" fill="#624A43"/>
<path d="M112.826 40.8319H114.005V48.8836H117.699V49.8493H112.826V40.8319ZM123.526 40.8319H124.705V49.8493H123.526V40.8319ZM131.235 40.8319H136.239V41.7976H132.414V44.2871H135.123V45.2528H132.414V49.8493H131.235V40.8319ZM141.929 40.8319H146.933V41.7976H143.108V44.2871H145.817V45.2528H143.108V48.8836H147.078V49.8493H141.929V40.8319ZM160.84 48.5387C161.012 48.6056 161.191 48.6683 161.379 48.7268C161.572 48.7854 161.766 48.8356 161.963 48.8773C162.163 48.9191 162.364 48.9526 162.565 48.9777C162.765 49.0027 162.962 49.0152 163.154 49.0152C163.484 49.0152 163.783 48.9777 164.051 48.9024C164.318 48.8272 164.548 48.7185 164.741 48.5764C164.933 48.4301 165.081 48.2523 165.186 48.0433C165.29 47.8302 165.343 47.5877 165.343 47.3159C165.343 47.0442 165.293 46.8227 165.192 46.6512C165.096 46.4756 164.954 46.3293 164.766 46.2123C164.582 46.0952 164.354 45.9969 164.082 45.9174C163.81 45.834 163.501 45.7481 163.154 45.6604C162.769 45.56 162.414 45.4494 162.088 45.328C161.766 45.2026 161.486 45.0416 161.248 44.8452C161.014 44.6487 160.83 44.4062 160.696 44.1178C160.562 43.8251 160.495 43.4614 160.495 43.0267C160.495 42.6713 160.566 42.3494 160.709 42.0609C160.851 41.7725 161.051 41.5279 161.311 41.3272C161.57 41.1224 161.881 40.9656 162.245 40.8569C162.609 40.7483 163.01 40.6938 163.449 40.6938C163.662 40.6938 163.88 40.7085 164.101 40.7378C164.323 40.763 164.542 40.7984 164.759 40.8444C164.977 40.8904 165.19 40.9468 165.399 41.0137C165.608 41.0806 165.805 41.1538 165.989 41.2332L165.612 42.1613C165.462 42.1028 165.307 42.0442 165.148 41.9857C164.994 41.9271 164.828 41.8749 164.653 41.8289C164.477 41.7829 164.289 41.7475 164.089 41.7223C163.892 41.693 163.679 41.6783 163.449 41.6783C163.219 41.6783 162.999 41.7035 162.79 41.7537C162.581 41.8039 162.395 41.8833 162.232 41.992C162.073 42.0964 161.946 42.2345 161.85 42.4058C161.754 42.5772 161.706 42.7842 161.706 43.0267C161.706 43.2984 161.754 43.5221 161.85 43.6977C161.95 43.869 162.092 44.0133 162.276 44.1303C162.464 44.2474 162.694 44.3478 162.966 44.4314C163.238 44.5108 163.547 44.5943 163.894 44.6822C164.279 44.7826 164.632 44.8954 164.954 45.0208C165.28 45.142 165.56 45.3008 165.794 45.4974C166.032 45.6939 166.218 45.9384 166.352 46.2311C166.486 46.5238 166.553 46.8854 166.553 47.3159C166.553 47.7715 166.467 48.1688 166.296 48.5074C166.128 48.8419 165.892 49.1198 165.587 49.3414C165.286 49.5629 164.927 49.7282 164.509 49.8368C164.095 49.9455 163.643 49.9999 163.154 49.9999C162.23 49.9999 161.333 49.8221 160.464 49.4668L160.84 48.5387ZM171.854 40.8319H178.607V41.7976H175.836V49.8493H174.658V41.7976H171.854V40.8319ZM189.984 40.8319H191.328L188.066 45.7858V49.8493H186.894V45.7858L183.632 40.8319H184.974L187.477 44.8201L189.984 40.8319ZM197.073 40.8319H198.253V48.8836H201.945V49.8493H197.073V40.8319ZM207.636 40.8319H212.64V41.7976H208.814V44.2871H211.523V45.2528H208.814V48.8836H212.783V49.8493H207.636V40.8319Z" fill="#624A43"/>
</svg>
