<svg width="30" height="30" viewBox="0 0 30 30" fill="none" xmlns="http://www.w3.org/2000/svg">
<path d="M17.8711 14.9999C17.8711 16.5857 16.5857 17.871 15 17.871C13.4143 17.871 12.1289 16.5856 12.1289 14.9999C12.1289 13.4143 13.4143 12.1288 15 12.1288C16.5857 12.1288 17.8711 13.4143 17.8711 14.9999Z" fill="#624A43"/>
<path d="M21.7154 9.92006C21.5774 9.54593 21.3572 9.2075 21.0711 8.92965C20.7933 8.64354 20.4549 8.42337 20.0807 8.28536C19.7772 8.16752 19.3214 8.02719 18.4815 7.98899C17.5731 7.94756 17.3007 7.9386 15.0009 7.9386C12.7009 7.9386 12.4286 7.94733 11.5204 7.98875C10.6806 8.02719 10.2244 8.16747 9.92115 8.28536C9.54697 8.42331 9.20851 8.64349 8.93074 8.92965C8.64463 9.20751 8.42439 9.54593 8.28621 9.92006C8.16838 10.2236 8.02805 10.6797 7.98984 11.5195C7.94842 12.4277 7.93945 12.7 7.93945 15.0001C7.93945 17.2999 7.94842 17.5722 7.98984 18.4807C8.02805 19.3204 8.16838 19.7764 8.28621 20.0799C8.42431 20.454 8.64447 20.7924 8.93051 21.0703C9.20832 21.3564 9.54676 21.5766 9.92092 21.7146C10.2244 21.8326 10.6806 21.973 11.5204 22.0112C12.4286 22.0526 12.7007 22.0613 15.0007 22.0613C17.301 22.0613 17.5733 22.0526 18.4813 22.0112C19.3211 21.973 19.7773 21.8326 20.0807 21.7146C20.4522 21.5713 20.7896 21.3518 21.0711 21.0703C21.3527 20.7887 21.5721 20.4514 21.7154 20.0799C21.8333 19.7764 21.9736 19.3205 22.012 18.4807C22.0535 17.5722 22.0622 17.2999 22.0622 15.0001C22.0622 12.7 22.0535 12.4277 22.012 11.5195C21.9738 10.6797 21.8335 10.2235 21.7154 9.92006ZM15.0009 19.4228C12.5581 19.4228 10.5778 17.4427 10.5778 14.9998C10.5778 12.557 12.5581 10.577 15.0009 10.577C17.4436 10.577 19.4238 12.557 19.4238 14.9998C19.4238 17.4427 17.4436 19.4228 15.0009 19.4228ZM19.5987 11.4357C19.0279 11.4357 18.5651 10.9729 18.5651 10.4021C18.5651 9.83135 19.0279 9.36846 19.5987 9.36846C20.1696 9.36846 20.6323 9.83124 20.6323 10.4021C20.6321 10.9729 20.1696 11.4357 19.5987 11.4357Z" fill="#624A43"/>
<path d="M15 0C6.71701 0 0 6.71701 0 15C0 23.283 6.71701 30 15 30C23.283 30 30 23.283 30 15C30 6.71701 23.283 0 15 0ZM23.5613 18.5511C23.5197 19.468 23.3739 20.094 23.161 20.6419C22.9397 21.2141 22.6013 21.7337 22.1675 22.1675C21.7337 22.6013 21.2141 22.9397 20.6419 23.161C20.0942 23.3739 19.468 23.5194 18.5513 23.5613C17.6329 23.6032 17.3394 23.6133 15.0002 23.6133C12.6608 23.6133 12.3676 23.6032 11.4489 23.5613C10.5322 23.5194 9.90604 23.3739 9.35824 23.161C8.78345 22.9448 8.26277 22.6057 7.83258 22.1674C7.39446 21.7372 7.05546 21.2166 6.83924 20.6419C6.62637 20.0942 6.48059 19.468 6.43893 18.5513C6.39656 17.6326 6.38672 17.3392 6.38672 15C6.38672 12.6608 6.39656 12.3674 6.43869 11.4489C6.48029 10.532 6.6259 9.90604 6.83877 9.35807C7.05506 8.78331 7.39421 8.2627 7.83252 7.83258C8.26266 7.39431 8.7833 7.05522 9.35807 6.839C9.90604 6.62613 10.532 6.48059 11.4489 6.43869C12.3674 6.3968 12.6608 6.38672 15 6.38672C17.3392 6.38672 17.6326 6.3968 18.5511 6.43887C19.468 6.48059 20.094 6.62613 20.6419 6.83877C21.2167 7.05511 21.7374 7.39424 22.1677 7.83252C22.6058 8.26272 22.9448 8.78335 23.161 9.35807C23.3741 9.90604 23.5196 10.532 23.5615 11.4489C23.6034 12.3674 23.6133 12.6608 23.6133 15C23.6133 17.3392 23.6034 17.6326 23.5613 18.5511Z" fill="#624A43"/>
</svg>
