<svg width="43" height="52" viewBox="0 0 43 52" fill="none" xmlns="http://www.w3.org/2000/svg">
<path d="M1.2998 20.4148C1.2998 33.8115 13.4269 44.8899 18.7947 49.1373C19.5629 49.7452 19.9517 50.0528 20.5248 50.2087C20.9711 50.3302 21.6279 50.3302 22.0742 50.2087C22.6484 50.0525 23.0344 49.7479 23.8055 49.1378C29.1733 44.8903 41.2998 33.8127 41.2998 20.4161C41.2998 15.3463 39.1928 10.4835 35.442 6.89865C31.6913 3.31377 26.6045 1.2998 21.3002 1.2998C15.9958 1.2998 10.9085 3.31407 7.1577 6.89896C3.40695 10.4838 1.2998 15.3451 1.2998 20.4148Z" stroke="#624A43" stroke-width="2.6" stroke-linecap="round" stroke-linejoin="round"/>
<path d="M15.5856 17.8667C15.5856 20.9166 18.144 23.389 21.2999 23.389C24.4558 23.389 27.0142 20.9166 27.0142 17.8667C27.0142 14.8168 24.4558 12.3444 21.2999 12.3444C18.144 12.3444 15.5856 14.8168 15.5856 17.8667Z" stroke="#624A43" stroke-width="2.6" stroke-linecap="round" stroke-linejoin="round"/>
</svg>
