<svg width="30" height="30" viewBox="0 0 30 30" fill="none" xmlns="http://www.w3.org/2000/svg">
<path d="M15 0C6.71701 0 0 6.71701 0 15C0 23.283 6.71701 30 15 30C23.283 30 30 23.283 30 15C30 6.71701 23.283 0 15 0ZM15.3179 23.7334C15.3177 23.7334 15.3182 23.7334 15.3179 23.7334H15.3142C13.8117 23.7328 12.3352 23.3561 11.0239 22.641L6.26473 23.8891L7.53844 19.2382C6.7527 17.8772 6.33932 16.3332 6.34002 14.7514C6.34207 9.80303 10.3695 5.77723 15.3179 5.77723C17.7193 5.77811 19.9736 6.71285 21.6685 8.40914C23.3636 10.1056 24.2965 12.3605 24.2956 14.7585C24.2935 19.7072 20.2656 23.7335 15.3179 23.7335L15.3179 23.7334Z" fill="#624A43"/>
<path d="M15.3208 7.29309C11.2048 7.29309 7.85747 10.6391 7.85559 14.7521C7.85518 16.1615 8.24975 17.5342 8.99659 18.7218L9.17395 19.004L8.42002 21.7568L11.2442 21.0162L11.5168 21.1778C12.6623 21.8575 13.9757 22.2171 15.3146 22.2176H15.3176C19.4304 22.2176 22.7778 18.8713 22.7796 14.7581C22.7803 12.7647 22.0049 10.8906 20.5961 9.48075C19.1873 8.07081 17.3137 7.29374 15.3208 7.29309ZM19.7099 17.9592C19.5228 18.4829 18.6268 18.961 18.1958 19.0256C17.8092 19.0832 17.3204 19.1073 16.7829 18.9367C16.457 18.8333 16.0393 18.6953 15.5039 18.4643C13.2538 17.493 11.7841 15.228 11.672 15.0782C11.5598 14.9286 10.756 13.8622 10.756 12.7583C10.756 11.6546 11.3355 11.112 11.5411 10.8876C11.7468 10.6631 11.9899 10.607 12.1393 10.607C12.2888 10.607 12.4385 10.6084 12.5692 10.6148C12.707 10.6217 12.8919 10.5624 13.0739 10.9998C13.2609 11.4489 13.7095 12.5525 13.7656 12.6647C13.8217 12.7771 13.8589 12.908 13.7843 13.0577C13.7095 13.2074 13.4609 13.5303 13.2236 13.8247C13.124 13.9481 12.9943 14.0579 13.1252 14.2824C13.2558 14.5067 13.7063 15.2412 14.373 15.8359C15.23 16.5999 15.9527 16.8365 16.1771 16.9489C16.4011 17.0611 16.532 17.0423 16.663 16.8929C16.7937 16.7431 17.2237 16.238 17.3731 16.0135C17.5227 15.7889 17.6723 15.8264 17.8779 15.9013C18.0837 15.9759 19.1864 16.5186 19.4107 16.6308C19.635 16.7431 19.7845 16.7992 19.8405 16.8929C19.8968 16.9864 19.8968 17.4353 19.7099 17.9592Z" fill="#624A43"/>
</svg>
